<?xml version="1.0" encoding="UTF-8"?>
<svg xmlns="http://www.w3.org/2000/svg" style="stroke-dasharray:none; shape-rendering:auto; font-family:'Arial'; text-rendering:auto; fill-opacity:1; color-interpolation:auto; color-rendering:auto; font-size:12; fill:black; stroke:black; image-rendering:auto; stroke-miterlimit:10; stroke-linecap:square; stroke-linejoin:miter; font-style:normal; stroke-width:1; stroke-dashoffset:0; font-weight:normal; stroke-opacity:1;" contentScriptType="text/ecmascript" preserveAspectRatio="xMidYMid meet" zoomAndPan="magnify" version="1.0" contentStyleType="text/css" xml:xlink="http://www.w3.org/1999/xlink" width="1251" height="791"><rect x="0" y="321" width="1251" height="141" ry="0" rx="0" style="stroke:#000000; fill:#ADC9AC" /><g componentSequence="2"><text x="-391" y="7" transform="rotate(270)" text-anchor="middle" style="font-weight:bold;font-size:10px;stroke:none; fill:#434343" /></g><rect x="0" y="461" width="1251" height="145" ry="0" rx="0" style="stroke:#000000; fill:#D0DAAE" /><g componentSequence="4"><text x="-533" y="7" transform="rotate(270)" text-anchor="middle" style="font-weight:bold;font-size:10px;stroke:none; fill:#434343" /></g><rect x="0" y="603" width="1251" height="187" ry="0" rx="0" style="stroke:#000000; fill:#D6E0D0" /><g componentSequence="5"><text x="-696" y="7" transform="rotate(270)" text-anchor="middle" style="font-weight:bold;font-size:10px;stroke:none; fill:#434343" /></g><rect x="0" y="190" width="1251" height="132" ry="0" rx="0" style="stroke:#000000; fill:#C9C3AC" /><g componentSequence="1"><text x="-256" y="7" transform="rotate(270)" text-anchor="middle" style="font-weight:bold;font-size:10px;stroke:none; fill:#434343" /></g><rect x="0" y="20" width="1251" height="171" ry="0" rx="0" style="stroke:#000000; fill:#82B0B7" /><g componentSequence="3"><text x="-105" y="7" transform="rotate(270)" text-anchor="middle" style="font-weight:bold;font-size:10px;stroke:none; fill:#434343" /></g><g sequence="4"><ellipse cx="35" cy="72" rx="17" ry="17" stroke-width="1" style="fill:url(#linearGradient66FF6696FF96B6FFB6_677128654);" stroke="336633" /></g><g sequence="5"><rect x="468" y="24" width="106" height="98" ry="5" rx="5" style="fill:url(#linearGradientF8FBFEEDF5FCDEEDFAD4E7F8E2E5E9_647746229);" stroke="191970" /></g><g componentSequence="5"><text x="521" y="39" text-anchor="middle" style="font-weight:bold;font-size:10px;stroke:none; fill:#333399"><tspan dy="14" x="521">Aprovação do</tspan><tspan dy="14" x="521">Gerente da Area</tspan><tspan dy="14" x="521">Demandante</tspan></text></g><g sequence="14"><polygon points=" 628 52 658 22 688 52 658 82 628 52" style="fill:url(#linearGradientFAFBFCFFFFCC_581190334);" stroke="000000" /></g><g componentSequence="14"><text x="658" y="92" text-anchor="middle" style="font-weight:bold;font-size:10px;stroke:none; fill:#333399"><tspan dy="14" x="658">Aprovad</tspan><tspan dy="14" x="658">o?</tspan></text></g><g sequence="16"><ellipse cx="807" cy="72" rx="17" ry="17" stroke-width="3" style="fill:url(#linearGradientFF6666FF9696FFB6B6_1738987662);" stroke="993333" /></g><g sequence="18"><rect x="234" y="343" width="106" height="112" ry="5" rx="5" style="fill:url(#linearGradientF8FBFEEDF5FCDEEDFAD4E7F8E2E5E9_779980781);" stroke="191970" /></g><g componentSequence="18"><text x="287" y="358" text-anchor="middle" style="font-weight:bold;font-size:10px;stroke:none; fill:#333399"><tspan dy="14" x="287">Status -</tspan><tspan dy="14" x="287">Aguardando</tspan><tspan dy="14" x="287">liberação da</tspan><tspan dy="14" x="287">Requisição no</tspan><tspan dy="14" x="287">Protheus</tspan></text></g><g sequence="20"><polygon points=" 610 378 640 348 670 378 640 408 610 378" style="fill:url(#linearGradientFAFBFCFFFFCC_1443626733);" stroke="000000" /></g><g componentSequence="20"><text x="640" y="418" text-anchor="middle" style="font-weight:bold;font-size:10px;stroke:none; fill:#333399"><tspan dy="14" x="640">Aprovad</tspan><tspan dy="14" x="640">o?</tspan></text></g><g sequence="23"><rect x="740" y="350" width="106" height="98" ry="5" rx="5" style="fill:url(#linearGradientF8FBFEEDF5FCDEEDFAD4E7F8E2E5E9_1446704928);" stroke="191970" /></g><g componentSequence="23"><text x="793" y="365" text-anchor="middle" style="font-weight:bold;font-size:10px;stroke:none; fill:#333399"><tspan dy="14" x="793">Status -</tspan><tspan dy="14" x="793">Aguardando</tspan><tspan dy="14" x="793">geração da Pré -</tspan><tspan dy="14" x="793">Requisição</tspan></text></g><g sequence="25"><polygon points=" 310 504 340 474 370 504 340 534 310 504" style="fill:url(#linearGradientFAFBFCFFFFCC_126429121);" stroke="000000" /></g><g componentSequence="25"><text x="340" y="544" text-anchor="middle" style="font-weight:bold;font-size:10px;stroke:none; fill:#333399"><tspan dy="14" x="340">Tem</tspan><tspan dy="14" x="340">saldo em</tspan><tspan dy="14" x="340">estoque</tspan></text></g><g sequence="27"><polygon points=" 450 511 480 481 510 511 480 541 450 511" style="fill:url(#linearGradientFAFBFCFFFFCC_1162461754);" stroke="000000" /></g><g componentSequence="27"><text x="480" y="551" text-anchor="middle" style="font-weight:bold;font-size:10px;stroke:none; fill:#333399"><tspan dy="14" x="480">Tem</tspan><tspan dy="14" x="480">contrato</tspan></text></g><g sequence="29"><rect x="620" y="490" width="106" height="84" ry="5" rx="5" style="fill:url(#linearGradientF8FBFEEDF5FCDEEDFAD4E7F8E2E5E9_1287434472);" stroke="191970" /></g><g componentSequence="29"><text x="673" y="505" text-anchor="middle" style="font-weight:bold;font-size:10px;stroke:none; fill:#333399"><tspan dy="14" x="673">Status - Em</tspan><tspan dy="14" x="673">processo de</tspan><tspan dy="14" x="673">Contratação</tspan></text></g><g sequence="31"><rect x="287" y="642" width="106" height="98" ry="5" rx="5" style="fill:url(#linearGradientF8FBFEEDF5FCDEEDFAD4E7F8E2E5E9_1295965608);" stroke="191970" /></g><g componentSequence="31"><text x="340" y="657" text-anchor="middle" style="font-weight:bold;font-size:10px;stroke:none; fill:#333399"><tspan dy="14" x="340">Status - Em</tspan><tspan dy="14" x="340">processo de</tspan><tspan dy="14" x="340">Solicitação ao</tspan><tspan dy="14" x="340">Fornecedor</tspan></text></g><g sequence="34"><rect x="480" y="635" width="106" height="112" ry="5" rx="5" style="fill:url(#linearGradientF8FBFEEDF5FCDEEDFAD4E7F8E2E5E9_63397089);" stroke="191970" /></g><g componentSequence="34"><text x="533" y="650" text-anchor="middle" style="font-weight:bold;font-size:10px;stroke:none; fill:#333399"><tspan dy="14" x="533">Status - Separar</tspan><tspan dy="14" x="533">material para</tspan><tspan dy="14" x="533">entrega ao</tspan><tspan dy="14" x="533">Solicitante</tspan></text></g><g sequence="36"><rect x="780" y="656" width="106" height="70" ry="5" rx="5" style="fill:url(#linearGradientF8FBFEEDF5FCDEEDFAD4E7F8E2E5E9_135530161);" stroke="191970" /></g><g componentSequence="36"><text x="833" y="671" text-anchor="middle" style="font-weight:bold;font-size:10px;stroke:none; fill:#333399"><tspan dy="14" x="833">Confirmação de</tspan><tspan dy="14" x="833">entrega</tspan></text></g><g sequence="43"><polygon points=" 260 237 290 207 320 237 290 267 260 237" style="fill:url(#linearGradientFAFBFCFFFFCC_554093739);" stroke="000000" /></g><g componentSequence="43"><text x="290" y="277" text-anchor="middle" style="font-weight:bold;font-size:10px;stroke:none; fill:#333399"><tspan dy="14" x="290">Requisiç</tspan><tspan dy="14" x="290">ão ou</tspan><tspan dy="14" x="290">devol...</tspan></text></g><g sequence="48"><rect x="780" y="497" width="106" height="70" ry="5" rx="5" style="fill:url(#linearGradientF8FBFEEDF5FCDEEDFAD4E7F8E2E5E9_451839678);" stroke="191970" /></g><g componentSequence="48"><text x="833" y="512" text-anchor="middle" style="font-weight:bold;font-size:10px;stroke:none; fill:#333399"><tspan dy="14" x="833">Aguardando</tspan><tspan dy="14" x="833">atendimento</tspan></text></g><g sequence="50"><rect x="960" y="656" width="106" height="70" ry="5" rx="5" style="fill:url(#linearGradientF8FBFEEDF5FCDEEDFAD4E7F8E2E5E9_595063126);" stroke="191970" /></g><g componentSequence="50"><text x="1013" y="671" text-anchor="middle" style="font-weight:bold;font-size:10px;stroke:none; fill:#333399"><tspan dy="14" x="1013">Aguardando</tspan><tspan dy="14" x="1013">contabilização</tspan></text></g><g sequence="52"><ellipse cx="1147" cy="691" rx="17" ry="17" stroke-width="3" style="fill:url(#linearGradientFF6666FF9696FFB6B6_201214471);" stroke="993333" /></g><g sequence="56"><rect x="400" y="223" width="106" height="70" ry="5" rx="5" style="fill:url(#linearGradientF8FBFEEDF5FCDEEDFAD4E7F8E2E5E9_478854215);" stroke="191970" /></g><g componentSequence="56"><text x="453" y="238" text-anchor="middle" style="font-weight:bold;font-size:10px;stroke:none; fill:#333399"><tspan dy="14" x="453">Analisa</tspan><tspan dy="14" x="453">devolução</tspan></text></g><g sequence="59"><ellipse cx="677" cy="258" rx="17" ry="17" stroke-width="3" style="fill:url(#linearGradientFF6666FF9696FFB6B6_1916736030);" stroke="993333" /></g><g sequence="65"><rect x="310" y="38" width="106" height="70" ry="5" rx="5" style="fill:url(#linearGradientF8FBFEEDF5FCDEEDFAD4E7F8E2E5E9_1860083790);" stroke="191970" /></g><g componentSequence="65"><text x="363" y="53" text-anchor="middle" style="font-weight:bold;font-size:10px;stroke:none; fill:#333399"><tspan dy="14" x="363">Atividade</tspan><tspan dy="14" x="363">Automatica 1</tspan></text></g><g sequence="71"><rect x="60" y="223" width="106" height="70" ry="5" rx="5" style="fill:url(#linearGradientF8FBFEEDF5FCDEEDFAD4E7F8E2E5E9_394883552);" stroke="191970" /></g><g componentSequence="71"><text x="113" y="238" text-anchor="middle" style="font-weight:bold;font-size:10px;stroke:none; fill:#333399"><tspan dy="14" x="113">Analisa</tspan><tspan dy="14" x="113">Requisição</tspan></text></g><g sequence="73"><rect x="60" y="120" width="106" height="70" ry="5" rx="5" style="fill:url(#linearGradientF8FBFEEDF5FCDEEDFAD4E7F8E2E5E9_1588105170);" stroke="191970" /></g><g componentSequence="73"><text x="113" y="135" text-anchor="middle" style="font-weight:bold;font-size:10px;stroke:none; fill:#333399"><tspan dy="14" x="113">Alterar</tspan><tspan dy="14" x="113">Requisição</tspan></text></g><g sequence="76"><ellipse cx="17" cy="258" rx="17" ry="17" stroke-width="3" style="fill:url(#linearGradientFF6666FF9696FFB6B6_1418582523);" stroke="993333" /></g><g componentSequence="17"><text x="749" y="72" style="font-size:10px;font-weight:none;stroke:none; fill:#333399" text-anchor="left"><tspan dy="14" x="749">Não</tspan></text></g><g componentSequence="21"><text x="485" y="399" style="font-size:10px;font-weight:none;stroke:none; fill:#333399" text-anchor="left" /></g><g componentSequence="24"><text x="715" y="399" style="font-size:10px;font-weight:none;stroke:none; fill:#333399" text-anchor="left"><tspan dy="14" x="715">Sim</tspan></text></g><g componentSequence="26"><text x="548" y="447" style="font-size:10px;font-weight:none;stroke:none; fill:#333399" text-anchor="left" /></g><g componentSequence="28"><text x="420" y="532" style="font-size:10px;font-weight:none;stroke:none; fill:#333399" text-anchor="left"><tspan dy="14" x="420">Não</tspan></text></g><g componentSequence="30"><text x="575" y="532" style="font-size:10px;font-weight:none;stroke:none; fill:#333399" text-anchor="left"><tspan dy="14" x="575">Não</tspan></text></g><g componentSequence="35"><text x="446" y="691" style="font-size:10px;font-weight:none;stroke:none; fill:#333399" text-anchor="left" /></g><g componentSequence="37"><text x="693" y="691" style="font-size:10px;font-weight:none;stroke:none; fill:#333399" text-anchor="left" /></g><g componentSequence="40"><text x="246" y="777" style="font-size:10px;font-weight:none;stroke:none; fill:#333399" text-anchor="left"><tspan dy="14" x="246">Sim</tspan></text></g><g componentSequence="41"><text x="742" y="219" style="font-size:10px;font-weight:none;stroke:none; fill:#333399" text-anchor="left"><tspan dy="14" x="742">Não</tspan></text></g><g componentSequence="44"><text x="484" y="169" style="font-size:10px;font-weight:none;stroke:none; fill:#333399" text-anchor="left" /></g><g componentSequence="46"><text x="405" y="596" style="font-size:10px;font-weight:none;stroke:none; fill:#333399" text-anchor="left"><tspan dy="14" x="405">Sim</tspan></text></g><g componentSequence="47"><text x="601" y="593" style="font-size:10px;font-weight:none;stroke:none; fill:#333399" text-anchor="left" /></g><g componentSequence="51"><text x="933" y="691" style="font-size:10px;font-weight:none;stroke:none; fill:#333399" text-anchor="left" /></g><g componentSequence="53"><text x="1108" y="691" style="font-size:10px;font-weight:none;stroke:none; fill:#333399" text-anchor="left" /></g><g componentSequence="54"><text x="1080" y="670" style="font-size:10px;font-weight:none;stroke:none; fill:#333399" text-anchor="left"><tspan dy="14" x="1080">Integra</tspan></text></g><g componentSequence="57"><text x="340" y="270" style="font-size:10px;font-weight:none;stroke:none; fill:#333399" text-anchor="left"><tspan dy="14" x="340">Devolução</tspan></text></g><g componentSequence="58"><text x="658" y="156" style="font-size:10px;font-weight:none;stroke:none; fill:#333399" text-anchor="left"><tspan dy="14" x="658">Rejeitada devolução</tspan></text></g><g componentSequence="60"><text x="520" y="257" style="font-size:10px;font-weight:none;stroke:none; fill:#333399" text-anchor="left"><tspan dy="14" x="520">Aceita devolução (integra)</tspan></text></g><g componentSequence="61"><text x="611" y="73" style="font-size:10px;font-weight:none;stroke:none; fill:#333399" text-anchor="left" /></g><g componentSequence="63"><text x="843" y="611" style="font-size:10px;font-weight:none;stroke:none; fill:#333399" text-anchor="left" /></g><g componentSequence="64"><text x="843" y="611" style="font-size:10px;font-weight:none;stroke:none; fill:#333399" text-anchor="left" /></g><g componentSequence="66"><text x="191" y="72" style="font-size:10px;font-weight:none;stroke:none; fill:#333399" text-anchor="left" /></g><g componentSequence="67"><text x="452" y="73" style="font-size:10px;font-weight:none;stroke:none; fill:#333399" text-anchor="left" /></g><g componentSequence="70"><text x="205" y="324" style="font-size:10px;font-weight:none;stroke:none; fill:#333399" text-anchor="left" /></g><g componentSequence="72"><text x="223" y="262" style="font-size:10px;font-weight:none;stroke:none; fill:#333399" text-anchor="left" /></g><g componentSequence="74"><text x="123" y="206" style="font-size:10px;font-weight:none;stroke:none; fill:#333399" text-anchor="left" /></g><g componentSequence="75"><text x="248" y="114" style="font-size:10px;font-weight:none;stroke:none; fill:#333399" text-anchor="left" /></g><g componentSequence="80"><text x="57" y="258" style="font-size:10px;font-weight:none;stroke:none; fill:#333399" text-anchor="left" /></g><path style="fill:none; stroke:#000000;stroke-width:1" d="M52.0 72.0 L309.0 72.0" /><polygon style="fill:#000000; stroke:#000000;" points=" 299 67 309 72 299 77 301 72" /><path style="fill:none; stroke:#000000;stroke-width:1" d="M574.0 73.0 L627.0 73.0" /><polygon style="fill:#000000; stroke:#000000;" points=" 617 68 627 73 617 78 619 73" /><path style="fill:none; stroke:#000000;stroke-width:1" d="M416.0 73.0 L467.0 73.0" /><polygon style="fill:#000000; stroke:#000000;" points=" 457 68 467 73 457 78 459 73" /><path style="fill:none; stroke:#000000;stroke-width:1" d="M688.0 72.0 L790.0 72.0" /><polygon style="fill:#000000; stroke:#000000;" points=" 780 67 790 72 780 77 782 72" /><path style="fill:none; stroke:#000000;stroke-width:1" d="M627.0 88.0 L320.0 249.0" /><polygon style="fill:#000000; stroke:#000000;" points=" 331 249 320 249 327 240 327 245" /><path style="fill:none; stroke:#000000;stroke-width:1" d="M666.0 347.0 L799.0 88.0" /><polygon style="fill:#000000; stroke:#000000;" points=" 790 95 799 88 799 99 795 95" /><path style="fill:none; stroke:#000000;stroke-width:1" d="M506.0 230.0 L792.0 80.0" /><polygon style="fill:#000000; stroke:#000000;" points=" 781 80 792 80 785 89 785 84" /><path style="fill:none; stroke:#000000;stroke-width:1" d="M340.0 399.0 L609.0 399.0" /><polygon style="fill:#000000; stroke:#000000;" points=" 599 394 609 399 599 404 601 399" /><path style="fill:none; stroke:#000000;stroke-width:1" d="M156.0 293.0 L233.0 355.0" /><polygon style="fill:#000000; stroke:#000000;" points=" 228 345 233 355 222 353 227 350" /><path style="fill:none; stroke:#000000;stroke-width:1" d="M670.0 399.0 L739.0 399.0" /><polygon style="fill:#000000; stroke:#000000;" points=" 729 394 739 399 729 404 731 399" /><path style="fill:none; stroke:#000000;stroke-width:1" d="M760.0 448.0 L761.0 447.0 L340.0 447.0 L340.0 473.0" /><polygon style="fill:#000000; stroke:#000000;" points=" 345 463 340 473 335 463 340 465" /><path style="fill:none; stroke:#000000;stroke-width:1" d="M370.0 532.0 L449.0 532.0" /><polygon style="fill:#000000; stroke:#000000;" points=" 439 527 449 532 439 537 441 532" /><path style="fill:none; stroke:#000000;stroke-width:1" d="M309.0 532.0 L232.0 532.0 L232.0 777.0 L532.0 776.0 L532.0 747.0" /><polygon style="fill:#000000; stroke:#000000;" points=" 527 757 532 747 537 757 532 755" /><path style="fill:none; stroke:#000000;stroke-width:1" d="M510.0 532.0 L619.0 532.0" /><polygon style="fill:#000000; stroke:#000000;" points=" 609 527 619 532 609 537 611 532" /><path style="fill:none; stroke:#000000;stroke-width:1" d="M481.0 583.0 L481.0 596.0 L340.0 596.0 L340.0 641.0" /><polygon style="fill:#000000; stroke:#000000;" points=" 345 631 340 641 335 631 340 633" /><path style="fill:none; stroke:#000000;stroke-width:1" d="M672.0 574.0 L672.0 593.0 L532.0 593.0 L532.0 634.0" /><polygon style="fill:#000000; stroke:#000000;" points=" 537 624 532 634 527 624 532 626" /><path style="fill:none; stroke:#000000;stroke-width:1" d="M393.0 691.0 L479.0 691.0" /><polygon style="fill:#000000; stroke:#000000;" points=" 469 686 479 691 469 696 471 691" /><path style="fill:none; stroke:#F00000;stroke-width:1" d="M586.0 691.0 L779.0 691.0" /><polygon style="fill:#F00000; stroke:#F00000;" points=" 769 686 779 691 769 696 771 691" /><polygon style="fill:#F00000; stroke:#F00000;" points=" 596 696 586 691 596 686 594 691" /><path style="fill:none; stroke:#000000;stroke-width:1" d="M886.0 691.0 L959.0 691.0" /><polygon style="fill:#000000; stroke:#000000;" points=" 949 686 959 691 949 696 951 691" /><path style="fill:none; stroke:#000000;stroke-width:1" d="M833.0 655.0 L833.0 567.0" /><polygon style="fill:#000000; stroke:#000000;" points=" 828 577 833 567 838 577 833 575" /><path style="fill:none; stroke:#000000;stroke-width:1" d="M833.0 567.0 L833.0 655.0" /><polygon style="fill:#000000; stroke:#000000;" points=" 838 645 833 655 828 645 833 647" /><path style="fill:none; stroke:#000000;stroke-width:1" d="M320.0 263.0 L399.0 260.0" /><polygon style="fill:#000000; stroke:#000000;" points=" 389 255 399 260 389 265 391 260" /><path style="fill:none; stroke:#000000;stroke-width:1" d="M259.0 263.0 L166.0 260.0" /><polygon style="fill:#000000; stroke:#000000;" points=" 176 265 166 260 176 255 174 260" /><path style="fill:none; stroke:#000000;stroke-width:1" d="M1066.0 691.0 L1129.0 691.0" /><polygon style="fill:#000000; stroke:#000000;" points=" 1119 686 1129 691 1119 696 1121 691" /><path style="fill:none; stroke:#009600;stroke-width:1" d="M1066.0 691.0 L1129.0 691.0" /><polygon style="fill:#009600; stroke:#009600;" points=" 1119 686 1129 691 1119 696 1121 691" /><path style="fill:none; stroke:#000000;stroke-width:1" d="M506.0 258.0 L659.0 258.0" /><polygon style="fill:#000000; stroke:#000000;" points=" 649 253 659 258 649 263 651 258" /><path style="fill:none; stroke:#000000;stroke-width:1" d="M166.0 137.0 L309.0 90.0" /><polygon style="fill:#000000; stroke:#000000;" points=" 298 88 309 90 301 98 301 92" /><path style="fill:none; stroke:#000000;stroke-width:1" d="M113.0 222.0 L113.0 190.0" /><polygon style="fill:#000000; stroke:#000000;" points=" 108 200 113 190 118 200 113 198" /><path style="fill:none; stroke:#000000;stroke-width:1" d="M59.0 258.0 L35.0 258.0" /><polygon style="fill:#000000; stroke:#000000;" points=" 45 263 35 258 45 253 43 258" /><defs><linearGradient xmlns:xlink="http://www.w3.org/1999/xlink" xlink:href="#linearGradient66FF6696FF96B6FFB6" id="linearGradient66FF6696FF96B6FFB6_677128654" x1="0" y1="55.0" x2="0" y2="90.0" gradientUnits="userSpaceOnUse" xlink:type="simple" xlink:actuate="onLoad" xlink:show="other" /><linearGradient id="linearGradient66FF6696FF96B6FFB6"><stop style="stop-color:#66FF66;stop-opacity:1;" offset="0.0" id="stop66FF66" /><stop style="stop-color:#96FF96;stop-opacity:1;" offset="0.5" id="stop96FF96" /><stop style="stop-color:#B6FFB6;stop-opacity:1;" offset="1.0" id="stopB6FFB6" /></linearGradient><linearGradient xmlns:xlink="http://www.w3.org/1999/xlink" xlink:href="#linearGradientF8FBFEEDF5FCDEEDFAD4E7F8E2E5E9" id="linearGradientF8FBFEEDF5FCDEEDFAD4E7F8E2E5E9_647746229" x1="0" y1="24.0" x2="0" y2="130.0" gradientUnits="userSpaceOnUse" xlink:type="simple" xlink:actuate="onLoad" xlink:show="other" /><linearGradient id="linearGradientF8FBFEEDF5FCDEEDFAD4E7F8E2E5E9"><stop style="stop-color:#F8FBFE;stop-opacity:1;" offset="0.0" id="stopF8FBFE" /><stop style="stop-color:#EDF5FC;stop-opacity:1;" offset="0.25" id="stopEDF5FC" /><stop style="stop-color:#DEEDFA;stop-opacity:1;" offset="0.5" id="stopDEEDFA" /><stop style="stop-color:#D4E7F8;stop-opacity:1;" offset="0.75" id="stopD4E7F8" /><stop style="stop-color:#E2E5E9;stop-opacity:1;" offset="1.0" id="stopE2E5E9" /></linearGradient><linearGradient xmlns:xlink="http://www.w3.org/1999/xlink" xlink:href="#linearGradientFAFBFCFFFFCC" id="linearGradientFAFBFCFFFFCC_581190334" x1="0" y1="22.0" x2="0" y2="82.0" gradientUnits="userSpaceOnUse" xlink:type="simple" xlink:actuate="onLoad" xlink:show="other" /><linearGradient id="linearGradientFAFBFCFFFFCC"><stop style="stop-color:#FAFBFC;stop-opacity:1;" offset="0.0" id="stopFAFBFC" /><stop style="stop-color:#FFFFCC;stop-opacity:1;" offset="1.0" id="stopFFFFCC" /></linearGradient><linearGradient xmlns:xlink="http://www.w3.org/1999/xlink" xlink:href="#linearGradientFF6666FF9696FFB6B6" id="linearGradientFF6666FF9696FFB6B6_1738987662" x1="0" y1="55.0" x2="0" y2="90.0" gradientUnits="userSpaceOnUse" xlink:type="simple" xlink:actuate="onLoad" xlink:show="other" /><linearGradient id="linearGradientFF6666FF9696FFB6B6"><stop style="stop-color:#FF6666;stop-opacity:1;" offset="0.0" id="stopFF6666" /><stop style="stop-color:#FF9696;stop-opacity:1;" offset="0.5" id="stopFF9696" /><stop style="stop-color:#FFB6B6;stop-opacity:1;" offset="1.0" id="stopFFB6B6" /></linearGradient><linearGradient xmlns:xlink="http://www.w3.org/1999/xlink" xlink:href="#linearGradientF8FBFEEDF5FCDEEDFAD4E7F8E2E5E9" id="linearGradientF8FBFEEDF5FCDEEDFAD4E7F8E2E5E9_779980781" x1="0" y1="343.0" x2="0" y2="449.0" gradientUnits="userSpaceOnUse" xlink:type="simple" xlink:actuate="onLoad" xlink:show="other" /><linearGradient xmlns:xlink="http://www.w3.org/1999/xlink" xlink:href="#linearGradientFAFBFCFFFFCC" id="linearGradientFAFBFCFFFFCC_1443626733" x1="0" y1="348.0" x2="0" y2="408.0" gradientUnits="userSpaceOnUse" xlink:type="simple" xlink:actuate="onLoad" xlink:show="other" /><linearGradient xmlns:xlink="http://www.w3.org/1999/xlink" xlink:href="#linearGradientF8FBFEEDF5FCDEEDFAD4E7F8E2E5E9" id="linearGradientF8FBFEEDF5FCDEEDFAD4E7F8E2E5E9_1446704928" x1="0" y1="350.0" x2="0" y2="456.0" gradientUnits="userSpaceOnUse" xlink:type="simple" xlink:actuate="onLoad" xlink:show="other" /><linearGradient xmlns:xlink="http://www.w3.org/1999/xlink" xlink:href="#linearGradientFAFBFCFFFFCC" id="linearGradientFAFBFCFFFFCC_126429121" x1="0" y1="474.0" x2="0" y2="534.0" gradientUnits="userSpaceOnUse" xlink:type="simple" xlink:actuate="onLoad" xlink:show="other" /><linearGradient xmlns:xlink="http://www.w3.org/1999/xlink" xlink:href="#linearGradientFAFBFCFFFFCC" id="linearGradientFAFBFCFFFFCC_1162461754" x1="0" y1="481.0" x2="0" y2="541.0" gradientUnits="userSpaceOnUse" xlink:type="simple" xlink:actuate="onLoad" xlink:show="other" /><linearGradient xmlns:xlink="http://www.w3.org/1999/xlink" xlink:href="#linearGradientF8FBFEEDF5FCDEEDFAD4E7F8E2E5E9" id="linearGradientF8FBFEEDF5FCDEEDFAD4E7F8E2E5E9_1287434472" x1="0" y1="490.0" x2="0" y2="596.0" gradientUnits="userSpaceOnUse" xlink:type="simple" xlink:actuate="onLoad" xlink:show="other" /><linearGradient xmlns:xlink="http://www.w3.org/1999/xlink" xlink:href="#linearGradientF8FBFEEDF5FCDEEDFAD4E7F8E2E5E9" id="linearGradientF8FBFEEDF5FCDEEDFAD4E7F8E2E5E9_1295965608" x1="0" y1="642.0" x2="0" y2="748.0" gradientUnits="userSpaceOnUse" xlink:type="simple" xlink:actuate="onLoad" xlink:show="other" /><linearGradient xmlns:xlink="http://www.w3.org/1999/xlink" xlink:href="#linearGradientF8FBFEEDF5FCDEEDFAD4E7F8E2E5E9" id="linearGradientF8FBFEEDF5FCDEEDFAD4E7F8E2E5E9_63397089" x1="0" y1="635.0" x2="0" y2="741.0" gradientUnits="userSpaceOnUse" xlink:type="simple" xlink:actuate="onLoad" xlink:show="other" /><linearGradient xmlns:xlink="http://www.w3.org/1999/xlink" xlink:href="#linearGradientF8FBFEEDF5FCDEEDFAD4E7F8E2E5E9" id="linearGradientF8FBFEEDF5FCDEEDFAD4E7F8E2E5E9_135530161" x1="0" y1="656.0" x2="0" y2="762.0" gradientUnits="userSpaceOnUse" xlink:type="simple" xlink:actuate="onLoad" xlink:show="other" /><linearGradient xmlns:xlink="http://www.w3.org/1999/xlink" xlink:href="#linearGradientFAFBFCFFFFCC" id="linearGradientFAFBFCFFFFCC_554093739" x1="0" y1="207.0" x2="0" y2="267.0" gradientUnits="userSpaceOnUse" xlink:type="simple" xlink:actuate="onLoad" xlink:show="other" /><linearGradient xmlns:xlink="http://www.w3.org/1999/xlink" xlink:href="#linearGradientF8FBFEEDF5FCDEEDFAD4E7F8E2E5E9" id="linearGradientF8FBFEEDF5FCDEEDFAD4E7F8E2E5E9_451839678" x1="0" y1="497.0" x2="0" y2="603.0" gradientUnits="userSpaceOnUse" xlink:type="simple" xlink:actuate="onLoad" xlink:show="other" /><linearGradient xmlns:xlink="http://www.w3.org/1999/xlink" xlink:href="#linearGradientF8FBFEEDF5FCDEEDFAD4E7F8E2E5E9" id="linearGradientF8FBFEEDF5FCDEEDFAD4E7F8E2E5E9_595063126" x1="0" y1="656.0" x2="0" y2="762.0" gradientUnits="userSpaceOnUse" xlink:type="simple" xlink:actuate="onLoad" xlink:show="other" /><linearGradient xmlns:xlink="http://www.w3.org/1999/xlink" xlink:href="#linearGradientFF6666FF9696FFB6B6" id="linearGradientFF6666FF9696FFB6B6_201214471" x1="0" y1="674.0" x2="0" y2="709.0" gradientUnits="userSpaceOnUse" xlink:type="simple" xlink:actuate="onLoad" xlink:show="other" /><linearGradient xmlns:xlink="http://www.w3.org/1999/xlink" xlink:href="#linearGradientF8FBFEEDF5FCDEEDFAD4E7F8E2E5E9" id="linearGradientF8FBFEEDF5FCDEEDFAD4E7F8E2E5E9_478854215" x1="0" y1="223.0" x2="0" y2="329.0" gradientUnits="userSpaceOnUse" xlink:type="simple" xlink:actuate="onLoad" xlink:show="other" /><linearGradient xmlns:xlink="http://www.w3.org/1999/xlink" xlink:href="#linearGradientFF6666FF9696FFB6B6" id="linearGradientFF6666FF9696FFB6B6_1916736030" x1="0" y1="241.0" x2="0" y2="276.0" gradientUnits="userSpaceOnUse" xlink:type="simple" xlink:actuate="onLoad" xlink:show="other" /><linearGradient xmlns:xlink="http://www.w3.org/1999/xlink" xlink:href="#linearGradientF8FBFEEDF5FCDEEDFAD4E7F8E2E5E9" id="linearGradientF8FBFEEDF5FCDEEDFAD4E7F8E2E5E9_1860083790" x1="0" y1="38.0" x2="0" y2="144.0" gradientUnits="userSpaceOnUse" xlink:type="simple" xlink:actuate="onLoad" xlink:show="other" /><linearGradient xmlns:xlink="http://www.w3.org/1999/xlink" xlink:href="#linearGradientF8FBFEEDF5FCDEEDFAD4E7F8E2E5E9" id="linearGradientF8FBFEEDF5FCDEEDFAD4E7F8E2E5E9_394883552" x1="0" y1="223.0" x2="0" y2="329.0" gradientUnits="userSpaceOnUse" xlink:type="simple" xlink:actuate="onLoad" xlink:show="other" /><linearGradient xmlns:xlink="http://www.w3.org/1999/xlink" xlink:href="#linearGradientF8FBFEEDF5FCDEEDFAD4E7F8E2E5E9" id="linearGradientF8FBFEEDF5FCDEEDFAD4E7F8E2E5E9_1588105170" x1="0" y1="120.0" x2="0" y2="226.0" gradientUnits="userSpaceOnUse" xlink:type="simple" xlink:actuate="onLoad" xlink:show="other" /><linearGradient xmlns:xlink="http://www.w3.org/1999/xlink" xlink:href="#linearGradientFF6666FF9696FFB6B6" id="linearGradientFF6666FF9696FFB6B6_1418582523" x1="0" y1="241.0" x2="0" y2="276.0" gradientUnits="userSpaceOnUse" xlink:type="simple" xlink:actuate="onLoad" xlink:show="other" /></defs></svg>
